HIERARCHY
ROOT Hips
{
  OFFSET 43.0842 91.1655 101.099
  CHANNELS 6 Xposition Yposition Zposition Zrotation Xrotation Yrotation
  JOINT LeftUpLeg
  {
    OFFSET 8.64259 1.95398 -2.38835
    CHANNELS 3 Zrotation Xrotation Yrotation
    JOINT LeftLeg
    {
      OFFSET 43.7702 0 0
      CHANNELS 3 Zrotation Xrotation Yrotation
      JOINT LeftFoot
      {
        OFFSET 40.6238 0 0
        CHANNELS 3 Zrotation Xrotation Yrotation
        JOINT LeftToeBase
        {
          OFFSET 12.7242 0 0
          CHANNELS 3 Zrotation Xrotation Yrotation
          End Site
          {
            OFFSET 0 0 0
          }
        }
      }
    }
  }
  JOINT RightUpLeg
  {
    OFFSET -8.2249 1.95398 -2.59336
    CHANNELS 3 Zrotation Xrotation Yrotation
    JOINT RightLeg
    {
      OFFSET 43.5653 0 0
      CHANNELS 3 Zrotation Xrotation Yrotation
      JOINT RightFoot
      {
        OFFSET 40.6238 0 0
        CHANNELS 3 Zrotation Xrotation Yrotation
        JOINT RightToeBase
        {
          OFFSET 12.7242 0 0
          CHANNELS 3 Zrotation Xrotation Yrotation
          End Site
          {
            OFFSET 0 0 0
          }
        }
      }
    }
  }
  JOINT Spine
  {
    OFFSET 0.165834 0.87714 6.61349
    CHANNELS 3 Zrotation Xrotation Yrotation
    JOINT Spine1
    {
      OFFSET 7.38963 1.71661e-005 0
      CHANNELS 3 Zrotation Xrotation Yrotation
      JOINT Spine2
      {
        OFFSET 11.9445 1.14441e-005 0
        CHANNELS 3 Zrotation Xrotation Yrotation
        JOINT Spine3
        {
          OFFSET 14.7254 4.19617e-005 0
          CHANNELS 3 Zrotation Xrotation Yrotation
          JOINT Spine4
          {
            OFFSET 10.9679 0 0
            CHANNELS 3 Zrotation Xrotation Yrotation
            JOINT RightShoulder
            {
              OFFSET 2.46616 -1.6653 3.69651
              CHANNELS 3 Zrotation Xrotation Yrotation
              JOINT RightArm
              {
                OFFSET 13.0012 0 0
                CHANNELS 3 Zrotation Xrotation Yrotation
                JOINT RightForeArm
                {
                  OFFSET 28.7848 1.52588e-005 0
                  CHANNELS 3 Zrotation Xrotation Yrotation
                  JOINT RightHand
                  {
                    OFFSET 26.5688 1.52588e-005 0
                    CHANNELS 3 Zrotation Xrotation Yrotation
                    End Site
                    {
                      OFFSET 0 0 0
                    }
                  }
                }
              }
            }
            JOINT LeftShoulder
            {
              OFFSET 2.38034 -1.29275 -3.7523
              CHANNELS 3 Zrotation Xrotation Yrotation
              JOINT LeftArm
              {
                OFFSET 16.3182 6.10351e-005 0
                CHANNELS 3 Zrotation Xrotation Yrotation
                JOINT LeftForeArm
                {
                  OFFSET 27.0901 0 0
                  CHANNELS 3 Zrotation Xrotation Yrotation
                  JOINT LeftHand
                  {
                    OFFSET 24.5451 1.52588e-005 0
                    CHANNELS 3 Zrotation Xrotation Yrotation
                    End Site
                    {
                      OFFSET 0 0 0
                    }
                  }
                }
              }
            }
            JOINT Neck
            {
              OFFSET 5.0226 -0.0266342 0
              CHANNELS 3 Zrotation Xrotation Yrotation
              JOINT Head
              {
                OFFSET 6.69364 2.86102e-005 0
                CHANNELS 3 Zrotation Xrotation Yrotation
                End Site
                {
                  OFFSET 0 0 0
                }
              }
            }
          }
        }
      }
    }
  }
}
MOTION
Frames:	6
Frame Time:	0.0333333
-46.5163 88.9284 29.4579 94.3527 9.65808 89.6451 -167.572 12.0677 101.091 -39.4824 21.357 -3.20916 64.576 5.64679 19.8541 37.3298 9.23468 3.18939 170.875 20.9971 78.301 -25.7601 0.891321 0.872614 59.2885 1.508 -3.629 28.1377 0.220356 0.387956 -0.307828 7.51361 -89.5528 11.8339 -0.401661 0.935256 0.162654 -0.36013 0.952022 -22.371 -0.664167 0.77132 -2.35837 -0.66416 0.771315 92.427 -52.573 -96.6234 5.57181 23.2079 -34.1187 -19.4751 15.4856 -57.7709 -5.40709 -0.291632 0.396442 -94.0285 -47.1902 71.9324 -2.8839 17.3774 -70.5628 4.7972 12.4805 -94.8986 10.7516 1.15011 -0.821339 -20.8868 -20.9645 -11.1205 -1.82125 -22.0096 -16.4865 
-46.4846 88.8207 29.519 94.369 9.46941 89.6243 -167.358 12.0787 101.24 -39.5591 21.7656 -3.36487 64.5541 5.6663 20.2738 37.5857 9.64795 2.97745 170.906 21.4292 78.2939 -26.6351 0.638006 0.844683 59.6689 1.13723 -3.3613 28.0208 0.36801 0.169124 -0.252117 7.51072 -89.5065 11.8516 -0.269 1.01279 0.180321 -0.224187 1.02363 -22.3525 -0.56095 0.885133 -2.33986 -0.560952 0.885129 92.2895 -53.835 -96.6038 4.4636 23.4165 -33.5629 -19.2493 15.2975 -58.1001 -5.86999 -0.411849 0.460225 -94.259 -47.1933 71.5827 -2.65587 17.2497 -70.4927 3.99402 12.9459 -94.1386 11.7581 1.33097 -1.30002 -21.2444 -19.9348 -12.419 -0.356339 -21.2061 -14.7778 
-46.4437 88.6765 29.5986 94.2566 9.27321 89.5623 -167.301 12.0835 101.137 -39.64 21.1996 -3.32592 64.8086 6.28056 20.1312 37.6863 9.66588 3.22971 170.926 22.115 78.2713 -27.6341 1.07996 0.865594 60.0127 0.797102 -2.87731 28.3269 0.208794 0.131952 -0.253142 7.52018 -89.5241 11.8347 -0.279531 0.978712 0.163395 -0.236175 0.990049 -22.3696 -0.560754 0.849466 -2.357 -0.560735 0.849464 92.0898 -53.7214 -96.9183 4.61023 23.5861 -33.4372 -19.1899 14.7767 -58.565 -6.20227 -0.519846 0.230953 -94.3848 -47.5859 71.5087 -1.8717 17.7271 -70.301 4.23595 11.7147 -94.0388 12.1361 1.36553 -1.11292 -20.3978 -19.2226 -11.2355 -0.215887 -20.354 -14.6159 
-46.3413 88.4763 29.6607 94.2324 9.17802 89.308 -167.321 12.0894 100.923 -39.9789 20.9063 -3.32552 65.0153 6.54233 20.0656 37.9643 9.9755 3.32132 170.677 22.8864 78.0297 -28.9517 0.697976 0.919159 60.4794 0.260888 -2.86429 28.9173 0.104537 -0.50108 -0.243642 7.55482 -89.5393 11.7644 -0.268089 0.946722 0.0931587 -0.226192 0.957607 -22.44 -0.540244 0.822391 -2.42736 -0.540214 0.822394 92.2334 -53.1161 -96.8144 5.55519 23.81 -33.6557 -19.228 14.7695 -58.9702 -5.30284 -0.309147 -0.123074 -94.494 -47.7458 71.3916 -2.15094 17.357 -70.1592 3.86456 11.9951 -93.4924 11.8144 1.43233 -2.31957 -19.5409 -19.1027 -10.4475 -0.202079 -20.0883 -13.9236 
-46.1161 88.2267 29.7336 94.25 8.89185 88.965 -167.14 12.0086 100.802 -40.4301 20.9843 -3.47089 65.1189 6.60805 20.0889 38.3729 10.5316 3.21279 170.529 23.9045 77.833 -30.7925 1.13325 0.841267 61.1701 -0.48681 -2.64181 29.3026 -0.169987 -0.345247 -0.200836 7.563 -89.5293 11.7477 -0.177952 0.957123 0.0763646 -0.135655 0.964018 -22.4565 -0.457394 0.859398 -2.44385 -0.457381 0.8594 92.2694 -53.1714 -96.7513 5.52084 24.0938 -33.2813 -19.1294 14.2868 -59.5585 -5.21609 -0.279946 -0.0576381 -94.9325 -48.311 70.9017 -1.46436 17.3185 -69.9219 3.24655 11.6324 -93.003 13.1738 1.57083 -1.90805 -19.8747 -19.0433 -10.1669 0.321125 -20.1089 -13.7726 
-45.8235 87.7996 29.913 94.1154 8.44029 88.4663 -166.775 12.0982 100.676 -41.0463 21.44 -3.80659 65.369 6.95141 20.4263 38.6781 10.88 3.28961 170.686 25.6158 77.5469 -33.7249 -0.111599 0.569054 62.0634 -1.30012 -3.14361 30.0987 -0.186251 -1.59229 -0.176166 7.56496 -89.4807 11.7433 -0.10628 1.04653 0.071941 -0.0601496 1.05019 -22.4603 -0.415901 0.96622 -2.44761 -0.4159 0.966217 92.2184 -53.329 -96.7988 5.80098 23.9827 -33.3911 -19.4788 13.7072 -59.8156 -5.51039 -0.366247 -0.150126 -94.7577 -48.2617 71.1491 -1.17256 17.3812 -70.0023 2.89371 11.2706 -92.3023 14.3188 1.76237 -2.63842 -19.7948 -18.8603 -10.0494 0.805688 -19.9398 -13.147 
